<?xml version="1.0" standalone="no"?>
<!DOCTYPE svg PUBLIC "-//W3C//DTD SVG 20010904//EN"
 "http://www.w3.org/TR/2001/REC-SVG-20010904/DTD/svg10.dtd">
<svg version="1.0" xmlns="http://www.w3.org/2000/svg"
 width="300.000000pt" height="300.000000pt" viewBox="0 0 300.000000 300.000000"
 preserveAspectRatio="xMidYMid meet">

<g transform="translate(0.000000,300.000000) scale(0.100000,-0.100000)"
fill="#000000" stroke="none">
<path d="M1280 2395 c-13 -14 -19 -25 -14 -25 8 1 50 50 41 50 -2 0 -14 -11
-27 -25z"/>
<path d="M1366 2405 c-11 -9 -14 -15 -7 -15 7 0 19 7 27 15 20 19 5 19 -20 0z"/>
<path d="M1570 2410 c-8 -5 -10 -10 -5 -10 6 0 17 5 25 10 8 5 11 10 5 10 -5
0 -17 -5 -25 -10z"/>
<path d="M1458 2403 c7 -3 16 -2 19 1 4 3 -2 6 -13 5 -11 0 -14 -3 -6 -6z"/>
<path d="M1171 2356 l-32 -33 36 11 c21 6 29 12 20 14 -15 3 -15 5 1 23 29 33
10 21 -25 -15z"/>
<path d="M1808 2373 c7 -3 16 -2 19 1 4 3 -2 6 -13 5 -11 0 -14 -3 -6 -6z"/>
<path d="M1748 2363 c6 -2 18 -2 25 0 6 3 1 5 -13 5 -14 0 -19 -2 -12 -5z"/>
<path d="M1019 2298 c-23 -46 -57 -88 -71 -88 -5 0 -6 12 -3 28 4 23 3 22 -11
-8 -20 -44 -53 -90 -64 -90 -10 0 7 76 26 115 13 26 13 28 0 15 -8 -8 -24 -47
-35 -87 -20 -67 -60 -136 -61 -104 0 11 -6 9 -22 -6 -13 -11 -38 -28 -55 -37
-18 -9 -33 -19 -33 -21 0 -5 42 10 71 25 11 7 19 7 19 1 0 -15 -59 -70 -94
-87 -17 -9 -39 -23 -48 -32 -33 -28 -12 24 26 67 14 16 16 22 6 19 -18 -5 -87
-137 -99 -188 -5 -19 -12 -44 -16 -55 l-7 -20 13 20 c20 34 53 66 82 81 46 24
34 -8 -28 -73 -45 -48 -56 -55 -65 -43 -8 12 -10 10 -10 -10 0 -14 -3 -36 -6
-50 -5 -22 -4 -22 10 5 16 30 86 98 93 91 9 -9 -29 -74 -66 -114 -32 -35 -40
-40 -44 -25 -3 10 -5 -4 -5 -32 l-1 -50 15 35 c21 48 75 104 86 87 5 -8 8 -4
8 12 0 38 54 193 76 221 7 8 19 31 28 50 9 19 28 51 41 70 34 46 154 167 204
205 22 17 40 36 41 43 0 7 7 26 15 42 9 17 13 30 10 30 -2 0 -14 -19 -26 -42z
m-313 -373 c-19 -28 -116 -108 -124 -101 -11 12 38 74 82 104 54 36 67 35 42
-3z"/>
<path d="M1067 2298 c-22 -22 -29 -34 -17 -26 13 7 30 18 39 23 9 6 17 18 17
28 1 9 1 17 0 16 0 0 -18 -19 -39 -41z"/>
<path d="M1835 2331 c42 -14 134 -62 146 -77 7 -8 26 -22 43 -31 17 -9 66 -52
109 -97 194 -203 283 -460 251 -729 -12 -108 -53 -240 -97 -317 -14 -25 -35
-61 -46 -80 -40 -70 -157 -191 -248 -255 -34 -24 -175 -94 -212 -105 -23 -7
-22 -8 14 -10 22 -1 58 -5 80 -9 l40 -8 -36 -16 c-34 -15 -41 -15 -93 0 -38
11 -53 19 -44 24 7 5 9 9 3 9 -5 0 -16 -4 -24 -9 -11 -7 -5 -13 24 -25 20 -9
47 -16 58 -16 16 0 18 -3 9 -12 -18 -18 -93 -13 -139 10 -24 13 -58 21 -80 21
-33 -2 -34 -2 -8 -6 52 -7 138 -45 123 -54 -24 -16 -63 -9 -117 21 -30 17 -61
30 -69 30 -8 0 15 -16 51 -35 36 -19 76 -35 87 -35 27 0 124 27 167 46 17 8
35 14 40 14 14 0 132 60 138 70 3 5 22 17 42 27 48 22 219 193 265 263 66 103
125 231 114 249 -4 6 -3 11 1 11 12 0 33 60 33 94 0 15 4 35 9 44 4 9 11 49
14 87 l6 70 -19 -48 c-10 -26 -32 -63 -49 -82 -30 -35 -31 -35 -31 -11 0 13
20 55 45 92 27 39 45 77 44 93 l-1 26 -8 -29 c-5 -15 -22 -47 -37 -69 -25 -37
-28 -38 -31 -18 -2 13 11 52 29 87 26 50 35 61 40 47 4 -10 4 11 2 47 -3 36
-10 73 -14 82 -5 9 -9 30 -9 45 0 16 -7 38 -15 49 -8 10 -15 27 -15 36 0 10
-13 43 -29 74 l-29 57 5 -44 c2 -24 0 -64 -5 -89 l-9 -45 -11 28 c-7 16 -12
62 -12 104 0 65 2 74 15 63 8 -7 0 13 -18 44 -36 62 -55 76 -26 19 13 -26 19
-58 19 -103 -1 -60 -2 -63 -16 -45 -8 11 -17 37 -21 58 -3 21 -9 33 -13 27
-11 -19 -42 39 -62 115 -9 39 -15 52 -12 30 3 -22 7 -49 10 -60 4 -17 1 -16
-19 7 -14 15 -35 57 -47 93 -12 36 -24 65 -26 62 -4 -3 7 -42 21 -82 6 -14 -2
-10 -28 14 -20 19 -40 44 -43 54 -4 12 -9 15 -13 9 -4 -7 -18 -3 -41 11 -33
21 -34 22 -12 25 13 2 30 -2 38 -8 7 -7 14 -9 14 -4 -1 21 -18 29 -63 31 -26
2 -62 11 -80 20 l-32 18 40 6 c31 4 24 6 -30 6 -38 0 -61 -3 -50 -6z m575
-500 c0 -20 -7 -56 -14 -81 -14 -44 -15 -44 -30 4 -3 8 0 45 6 82 10 59 13 65
25 48 7 -10 13 -34 13 -53z m29 -91 c1 -36 -28 -120 -41 -120 -14 0 -9 72 9
134 13 46 18 55 24 40 4 -10 8 -35 8 -54z m12 -140 c-6 -19 -20 -46 -31 -60
l-20 -25 0 26 c0 26 14 73 41 134 l13 30 4 -35 c2 -19 -1 -51 -7 -70z m6 -260
c-9 -16 -13 -38 -10 -49 7 -27 -20 -73 -61 -104 -19 -15 -37 -27 -40 -27 -12
0 -5 23 13 46 11 13 17 33 14 43 -6 24 10 54 56 108 39 45 54 36 28 -17z m-37
-162 c0 -21 -42 -65 -82 -87 -54 -29 -48 -6 13 51 52 49 69 58 69 36z m-30
-78 c0 -21 -61 -77 -100 -93 l-42 -16 15 22 c7 12 38 39 68 59 62 42 59 41 59
28z m-50 -99 c-15 -29 -58 -59 -98 -71 -73 -20 -47 17 42 60 73 35 69 35 56
11z m-57 -86 c-11 -29 -143 -80 -143 -55 0 11 28 28 85 51 52 22 66 23 58 4z
m-77 -90 c-17 -13 -48 -27 -70 -30 -23 -4 -50 -9 -61 -12 -19 -5 -19 -4 1 17
20 21 143 63 154 53 3 -3 -8 -15 -24 -28z m-36 -40 c0 -3 -17 -16 -37 -29 -25
-16 -57 -25 -95 -28 -32 -3 -58 -3 -58 -2 0 13 61 39 113 49 80 16 77 16 77
10z m-100 -79 c-23 -29 -74 -38 -159 -27 -3 1 0 6 6 12 6 6 38 15 70 19 95 12
97 12 83 -4z m-96 -46 c28 0 29 -1 10 -15 -20 -15 -80 -19 -135 -8 l-34 7 30
13 c17 7 46 11 65 8 19 -3 48 -5 64 -5z"/>
<path d="M2406 1274 c-15 -14 -25 -28 -22 -31 4 -4 19 5 33 20 35 34 27 43
-11 11z"/>
<path d="M955 2289 c-4 -6 -5 -12 -2 -15 2 -3 7 2 10 11 7 17 1 20 -8 4z"/>
<path d="M2091 2273 c7 -12 15 -20 18 -17 3 2 -3 12 -13 22 -17 16 -18 16 -5
-5z"/>
<path d="M1731 2233 c-1 -15 -7 -23 -18 -23 -16 -1 -212 -170 -197 -170 4 0
46 36 95 80 48 44 94 80 103 80 19 0 31 23 23 42 -3 7 -6 3 -6 -9z"/>
<path d="M2161 2220 c29 -45 29 -45 29 -34 0 5 -12 23 -26 39 l-26 30 23 -35z"/>
<path d="M829 2223 c-13 -16 -12 -17 4 -4 9 7 17 15 17 17 0 8 -8 3 -21 -13z"/>
<path d="M1263 2220 c2 -8 12 -16 23 -17 13 -2 15 -1 4 4 -8 3 -19 11 -23 17
-6 7 -7 6 -4 -4z"/>
<path d="M789 2174 c-23 -25 -23 -26 -2 -13 13 7 25 19 27 26 8 19 2 16 -25
-13z"/>
<path d="M1310 2197 c0 -2 39 -40 87 -83 48 -44 84 -74 80 -68 -9 15 -167 158
-167 151z"/>
<path d="M2230 2150 c16 -22 27 -55 31 -90 l6 -55 2 48 c1 50 -15 94 -45 118
-12 9 -10 2 6 -21z"/>
<path d="M783 2131 c-10 -15 -9 -20 2 -25 11 -4 15 2 15 19 0 30 -2 31 -17 6z"/>
<path d="M703 2070 c-18 -21 -33 -40 -33 -44 0 -3 16 12 36 34 20 22 35 42 33
44 -2 1 -19 -14 -36 -34z"/>
<path d="M1459 1993 l-34 -38 38 34 c34 33 42 41 34 41 -2 0 -19 -17 -38 -37z"/>
<path d="M1540 1985 c19 -19 36 -35 39 -35 3 0 -10 16 -29 35 -19 19 -36 35
-39 35 -3 0 10 -16 29 -35z"/>
<path d="M1223 1733 c4 -3 -3 -18 -15 -32 l-23 -26 27 24 c24 21 29 41 11 41
-4 0 -3 -3 0 -7z"/>
<path d="M1760 1733 c0 -5 12 -20 28 -34 l27 -24 -25 30 c-14 17 -26 32 -27
34 -2 2 -3 0 -3 -6z"/>
<path d="M1118 1629 l-33 -31 38 27 c20 15 37 29 37 31 0 10 -12 2 -42 -27z"/>
<path d="M1845 1654 c6 -5 23 -20 40 -34 29 -24 29 -24 10 -2 -11 13 -29 28
-40 34 -11 6 -15 6 -10 2z"/>
<path d="M604 1628 c-7 -25 -64 -111 -76 -116 -5 -2 -8 -16 -8 -30 1 -26 1
-26 15 6 8 19 26 47 40 64 l25 30 0 -29 c0 -35 -65 -152 -73 -132 -9 20 2 -76
15 -136 16 -70 46 -163 62 -189 8 -11 17 -32 21 -45 7 -24 33 -67 82 -135 68
-95 286 -286 327 -286 5 0 17 -6 25 -14 20 -18 200 -86 227 -86 5 0 -5 9 -22
19 -34 20 -86 80 -84 95 1 5 -27 23 -62 41 -118 59 -194 117 -276 210 -160
182 -231 370 -232 611 -1 51 2 104 6 118 8 32 -2 35 -12 4z m-7 -181 c-3 -23
-16 -65 -29 -92 l-23 -50 -3 42 c-2 29 4 56 23 92 14 28 28 51 32 51 3 0 3
-19 0 -43z m13 -89 c-1 -51 -35 -165 -43 -144 -12 30 -8 89 9 133 20 51 34 56
34 11z m17 -135 c-7 -82 -16 -111 -28 -91 -20 32 -2 158 23 158 7 0 9 -23 5
-67z m31 -50 c5 -21 7 -65 3 -98 -6 -58 -7 -59 -20 -35 -8 13 -14 43 -13 67 0
43 11 103 17 103 3 0 8 -17 13 -37z m50 -166 l2 -82 -20 35 c-14 26 -19 51
-18 98 1 58 3 62 17 47 11 -11 17 -39 19 -98z m56 -52 c3 -16 8 -48 11 -70 l5
-40 -20 23 c-23 28 -40 83 -40 132 l0 35 20 -25 c11 -14 22 -38 24 -55z m45
-37 c18 -28 50 -148 40 -148 -23 0 -68 102 -69 158 0 19 14 14 29 -10z m67
-75 c15 -23 64 -130 64 -141 0 -1 -9 2 -20 8 -22 12 -53 66 -68 123 -12 44 -2
48 24 10z m124 -142 c17 -30 28 -56 26 -58 -2 -2 -18 8 -36 23 -29 25 -70 99
-70 127 0 20 51 -38 80 -92z m81 -37 c43 -59 45 -76 4 -54 -21 11 -85 106 -85
125 0 17 45 -23 81 -71z m35 13 c31 -17 106 -111 93 -116 -17 -5 -60 31 -97
83 -35 47 -33 55 4 33z"/>
<path d="M1530 1640 c-9 -6 -10 -10 -3 -10 6 0 15 5 18 10 8 12 4 12 -15 0z"/>
<path d="M1387 1609 c7 -7 15 -10 18 -7 3 3 -2 9 -12 12 -14 6 -15 5 -6 -5z"/>
<path d="M1490 1600 c-9 -6 -10 -10 -3 -10 6 0 15 5 18 10 8 12 4 12 -15 0z"/>
<path d="M1425 1590 c3 -5 8 -10 11 -10 2 0 4 5 4 10 0 6 -5 10 -11 10 -5 0
-7 -4 -4 -10z"/>
<path d="M858 1543 c7 -3 16 -2 19 1 4 3 -2 6 -13 5 -11 0 -14 -3 -6 -6z"/>
<path d="M791 1514 c-17 -14 -31 -31 -31 -37 0 -7 10 0 23 14 12 15 31 32 42
38 11 6 15 11 8 11 -6 0 -25 -12 -42 -26z"/>
<path d="M752 1430 c0 -19 2 -27 5 -17 2 9 2 25 0 35 -3 9 -5 1 -5 -18z"/>
<path d="M897 1443 c6 -4 13 -22 16 -38 4 -27 5 -27 3 4 0 21 -7 36 -16 38
-10 3 -11 2 -3 -4z"/>
<path d="M994 1368 c-9 -24 -18 -47 -20 -53 -1 -5 -12 -35 -23 -67 -43 -111
-94 -161 -148 -143 -59 21 -68 91 -17 142 31 31 66 28 74 -7 4 -18 8 -21 14
-12 10 17 -21 52 -45 52 -32 0 -79 -51 -86 -92 -5 -32 -1 -41 26 -69 28 -28
37 -31 73 -26 25 3 52 16 70 34 38 35 80 126 81 175 1 28 5 34 14 26 7 -5 20
-8 30 -5 15 4 15 5 -3 6 -16 1 -21 8 -21 31 0 16 4 27 9 24 4 -3 5 2 2 10 -9
22 -10 21 -30 -26z"/>
<path d="M2030 1395 c-7 -9 -11 -17 -9 -20 3 -2 10 5 17 15 14 24 10 26 -8 5z"/>
<path d="M2132 1385 c-14 -31 -15 -38 -3 -31 7 5 41 -71 41 -91 0 -2 -18 -3
-40 -3 -33 0 -38 3 -34 18 5 14 4 15 -5 2 -18 -26 -13 -30 38 -30 48 0 50 -1
61 -36 9 -25 9 -38 2 -43 -6 -4 6 -6 27 -6 30 0 35 2 26 12 -7 7 -32 62 -55
123 -24 60 -44 110 -45 110 -1 0 -7 -11 -13 -25z"/>
<path d="M766 1377 c3 -10 9 -15 12 -12 3 3 0 11 -7 18 -10 9 -11 8 -5 -6z"/>
<path d="M797 1349 c7 -7 15 -10 18 -7 3 3 -2 9 -12 12 -14 6 -15 5 -6 -5z"/>
<path d="M1908 1324 c8 -18 19 -31 23 -29 4 3 6 -28 5 -68 -1 -53 -7 -81 -22
-107 -12 -19 -25 -34 -30 -33 -72 13 -71 13 -36 1 18 -6 31 -16 29 -22 -5 -16
-95 -75 -131 -85 -20 -6 -24 -9 -11 -10 31 -1 106 37 141 70 30 29 31 29 67
14 20 -8 42 -15 49 -14 7 0 -5 7 -26 15 -22 8 -41 16 -43 18 -3 2 5 23 17 46
20 40 44 174 29 164 -5 -3 -15 9 -24 26 -9 18 -20 28 -27 24 -7 -5 -9 -2 -6 8
4 8 1 15 -7 15 -10 0 -10 -7 3 -33z"/>
<path d="M1063 1325 c-3 -9 -3 -18 -1 -21 3 -3 8 4 11 16 6 23 -1 27 -10 5z"/>
<path d="M1197 1326 c-3 -8 -3 -24 0 -36 4 -16 8 -18 14 -8 6 9 9 9 9 1 0 -6
-4 -14 -9 -17 -5 -3 0 -22 10 -43 11 -22 15 -41 10 -47 -6 -8 1 -11 24 -11 29
0 32 2 21 15 -7 8 -23 41 -36 72 -12 32 -27 55 -32 52 -6 -4 -8 2 -3 15 7 23
0 29 -8 7z"/>
<path d="M1775 1329 c-4 -6 -5 -12 -2 -15 2 -3 7 2 10 11 7 17 1 20 -8 4z"/>
<path d="M2106 1325 c-9 -26 -7 -32 5 -12 6 10 9 21 6 23 -2 3 -7 -2 -11 -11z"/>
<path d="M1351 1297 c0 -16 -5 -25 -11 -22 -6 4 -10 -15 -10 -49 0 -47 3 -56
18 -56 14 0 17 8 14 52 -1 29 -4 64 -6 78 -3 23 -3 23 -5 -3z"/>
<path d="M1797 1276 c-10 -25 25 -106 45 -106 15 0 14 6 -8 58 -31 68 -30 67
-37 48z"/>
<path d="M1118 1265 c-3 -11 -9 -29 -13 -40 -3 -11 1 -7 10 8 9 16 15 33 12
40 -2 6 -6 3 -9 -8z"/>
<path d="M1570 1214 c18 -27 35 -51 37 -53 1 -2 3 10 3 27 0 25 -4 32 -20 32
-11 0 -20 5 -20 11 0 5 6 7 13 3 7 -4 9 -3 4 2 -5 5 -12 9 -15 9 -4 0 -13 4
-21 9 -8 5 1 -13 19 -40z"/>
<path d="M1672 1195 c-9 -19 -9 -25 1 -25 6 0 13 11 13 25 2 31 0 31 -14 0z"/>
<path d="M2048 1186 c-16 -22 -16 -23 13 -23 16 0 26 3 21 6 -6 3 -11 13 -13
23 -3 14 -7 13 -21 -6z"/>
<path d="M1083 1181 c-10 -16 -8 -18 13 -18 21 0 23 2 12 16 -7 9 -13 17 -13
18 0 1 -6 -6 -12 -16z"/>
<path d="M1440 1180 c0 -5 5 -10 11 -10 5 0 7 5 4 10 -3 6 -8 10 -11 10 -2 0
-4 -4 -4 -10z"/>
<path d="M1635 1106 c-17 -7 -37 -21 -45 -31 -11 -14 -6 -12 17 5 21 15 53 25
95 30 63 7 63 7 13 8 -27 1 -64 -5 -80 -12z"/>
<path d="M1778 1103 c6 -2 18 -2 25 0 6 3 1 5 -13 5 -14 0 -19 -2 -12 -5z"/>
<path d="M2165 1053 c-26 -23 -35 -25 -95 -20 -54 4 -59 3 -30 -5 50 -14 118
-4 143 21 31 30 17 34 -18 4z"/>
<path d="M1571 1034 c0 -11 3 -14 6 -6 3 7 2 16 -1 19 -3 4 -6 -2 -5 -13z"/>
<path d="M1580 1006 c0 -2 8 -10 18 -17 15 -13 16 -12 3 4 -13 16 -21 21 -21
13z"/>
<path d="M1915 970 c-3 -5 -1 -10 4 -10 6 0 11 5 11 10 0 6 -2 10 -4 10 -3 0
-8 -4 -11 -10z"/>
<path d="M1048 914 c-27 -40 -33 -54 -22 -58 8 -3 14 -1 14 5 0 11 48 79 63
90 5 3 3 8 -5 11 -8 3 -28 -16 -50 -48z"/>
<path d="M1663 963 c9 -2 25 -2 35 0 9 3 1 5 -18 5 -19 0 -27 -2 -17 -5z"/>
<path d="M1134 920 c0 -13 4 -16 10 -10 7 7 7 13 0 20 -6 6 -10 3 -10 -10z"/>
<path d="M1848 925 c-3 -4 8 -27 25 -51 33 -47 64 -57 88 -27 13 15 12 15 -9
2 -25 -15 -33 -8 -82 61 -8 12 -18 19 -22 15z"/>
<path d="M1085 890 c3 -5 8 -10 11 -10 2 0 4 5 4 10 0 6 -5 10 -11 10 -5 0 -7
-4 -4 -10z"/>
<path d="M1194 880 c-29 -12 -49 -62 -34 -89 12 -24 22 -28 14 -6 -9 23 4 62
28 85 24 22 23 23 -8 10z"/>
<path d="M1786 854 c21 -20 25 -33 22 -61 -4 -31 -3 -33 9 -17 7 10 13 25 13
35 0 22 -38 69 -55 69 -9 0 -5 -9 11 -26z"/>
<path d="M1260 837 c0 -27 -7 -45 -25 -62 -13 -14 -20 -25 -14 -25 5 0 21 11
34 25 26 25 32 59 15 85 -7 11 -10 5 -10 -23z"/>
<path d="M1710 849 c-13 -23 -5 -73 13 -87 7 -5 21 -12 32 -16 18 -7 18 -5 -2
14 -26 23 -38 61 -30 90 7 26 1 25 -13 -1z"/>
<path d="M1346 810 c-3 -16 -9 -43 -12 -59 -3 -16 -1 -32 4 -35 5 -3 12 17 16
44 4 28 9 57 12 65 4 8 2 15 -4 15 -6 0 -13 -13 -16 -30z"/>
<path d="M1407 806 c4 -17 0 -28 -9 -31 -18 -7 -10 -66 9 -72 8 -3 9 6 3 31
-6 26 -4 38 8 50 15 15 15 17 0 32 -14 15 -15 14 -11 -10z"/>
<path d="M1550 826 c0 -2 14 -20 30 -41 17 -21 30 -46 30 -56 0 -11 5 -19 10
-19 15 0 1 51 -21 76 -11 11 -19 26 -19 32 0 7 -7 12 -15 12 -8 0 -15 -2 -15
-4z"/>
<path d="M1273 584 c61 -61 89 -74 155 -74 46 0 46 0 21 14 -15 7 -50 32 -79
55 -28 22 -59 41 -68 41 -10 0 -4 -7 14 -17 17 -10 49 -33 70 -50 35 -30 36
-33 16 -33 -13 0 -33 5 -45 11 -31 16 -97 81 -92 89 3 4 -7 10 -21 13 -21 4
-18 -3 29 -49z"/>
<path d="M1468 593 c7 -3 16 -2 19 1 4 3 -2 6 -13 5 -11 0 -14 -3 -6 -6z"/>
<path d="M1430 586 c0 -2 20 -17 45 -33 25 -15 45 -31 45 -35 0 -5 24 -7 53
-7 l52 2 -47 6 c-29 4 -65 19 -93 39 -44 31 -55 37 -55 28z"/>
<path d="M1488 503 c7 -3 16 -2 19 1 4 3 -2 6 -13 5 -11 0 -14 -3 -6 -6z"/>
</g>
</svg>
